<svg width="18" height="18" viewBox="0 0 18 18" fill="none" xmlns="http://www.w3.org/2000/svg">
<path d="M16.425 17.45C14.4917 17.45 12.5667 16.9917 10.65 16.075C8.75 15.1417 7.05 13.925 5.55 12.425C4.05 10.925 2.83333 9.225 1.9 7.325C0.983334 5.425 0.525 3.5 0.525 1.55C0.525 1.25 0.625 0.999999 0.825 0.799999C1.025 0.599999 1.275 0.5 1.575 0.5H4.825C5.09167 0.5 5.31667 0.583333 5.5 0.749999C5.7 0.899999 5.825 1.1 5.875 1.35L6.45 4.3C6.48333 4.55 6.475 4.775 6.425 4.975C6.375 5.175 6.26667 5.35 6.1 5.5L3.825 7.75C4.60833 9.08333 5.54167 10.2917 6.625 11.375C7.725 12.4583 8.96667 13.4 10.35 14.2L12.575 11.95C12.7417 11.7833 12.9333 11.6667 13.15 11.6C13.3833 11.5333 13.6167 11.5167 13.85 11.55L16.625 12.125C16.875 12.175 17.075 12.2917 17.225 12.475C17.3917 12.6583 17.475 12.8833 17.475 13.15V16.4C17.475 16.7 17.375 16.95 17.175 17.15C16.975 17.35 16.725 17.45 16.425 17.45Z" fill="#00897B"/>
</svg>
