<svg xmlns="http://www.w3.org/2000/svg" width="24" height="24" viewBox="0 0 24 24">
  <g id="Group_18808" data-name="Group 18808" transform="translate(-96 -436)">
    <g id="Rectangle_6060" data-name="Rectangle 6060" transform="translate(96 436)" fill="#fff" stroke="#707070" stroke-width="1" opacity="0">
      <rect width="24" height="24" stroke="none"/>
      <rect x="0.5" y="0.5" width="23" height="23" fill="none"/>
    </g>
    <path id="credit-card" d="M2,7.714A1.714,1.714,0,0,1,3.714,6H16.286A1.714,1.714,0,0,1,18,7.714v.571H2ZM2,9.429H18v6.286a1.714,1.714,0,0,1-1.714,1.714H3.714A1.714,1.714,0,0,1,2,15.714Zm9.143,4a.571.571,0,1,0,0,1.143h3.429a.571.571,0,1,0,0-1.143Z" transform="translate(98 436)" fill="#007dc5" fill-rule="evenodd"/>
  </g>
</svg>
