<svg width="26" height="26" viewBox="0 0 26 26" fill="none" xmlns="http://www.w3.org/2000/svg">
<path d="M5.7 21C5.43333 21 5.21111 20.9111 5.03333 20.7333C4.85556 20.5556 4.76667 20.3333 4.76667 20.0667V11.4C4.76667 11.1333 4.85556 10.9222 5.03333 10.7667C5.21111 10.5889 5.43333 10.5 5.7 10.5C5.94445 10.5 6.15556 10.5889 6.33333 10.7667C6.51111 10.9444 6.6 11.1667 6.6 11.4333V20.1C6.6 20.3444 6.51111 20.5556 6.33333 20.7333C6.15556 20.9111 5.94445 21 5.7 21ZM13.0333 21C12.7667 21 12.5444 20.9111 12.3667 20.7333C12.1889 20.5556 12.1 20.3333 12.1 20.0667V11.4C12.1 11.1333 12.1889 10.9222 12.3667 10.7667C12.5444 10.5889 12.7667 10.5 13.0333 10.5C13.3 10.5 13.5222 10.5889 13.7 10.7667C13.8778 10.9444 13.9667 11.1667 13.9667 11.4333V20.1C13.9667 20.3444 13.8778 20.5556 13.7 20.7333C13.5222 20.9111 13.3 21 13.0333 21ZM1.56667 25.3333C1.32222 25.3333 1.11111 25.2444 0.933334 25.0667C0.777778 24.8889 0.7 24.6667 0.7 24.4C0.7 24.1333 0.788889 23.9222 0.966667 23.7667C1.14444 23.5889 1.35556 23.5 1.6 23.5H24.4333C24.6778 23.5 24.8778 23.5889 25.0333 23.7667C25.2111 23.9444 25.3 24.1556 25.3 24.4C25.3 24.6667 25.2111 24.8889 25.0333 25.0667C24.8556 25.2444 24.6444 25.3333 24.4 25.3333H1.56667ZM20.3 21C20.0556 21 19.8444 20.9111 19.6667 20.7333C19.4889 20.5556 19.4 20.3333 19.4 20.0667V11.4C19.4 11.1333 19.4889 10.9222 19.6667 10.7667C19.8444 10.5889 20.0556 10.5 20.3 10.5C20.5667 10.5 20.7889 10.5889 20.9667 10.7667C21.1444 10.9444 21.2333 11.1667 21.2333 11.4333V20.1C21.2333 20.3444 21.1444 20.5556 20.9667 20.7333C20.7889 20.9111 20.5667 21 20.3 21ZM14 0.566666L24.7 6C24.8778 6.08889 25.0222 6.23333 25.1333 6.43333C25.2444 6.61111 25.3 6.81111 25.3 7.03333C25.3 7.3 25.2 7.53333 25 7.73333C24.8 7.91111 24.5556 8 24.2667 8H1.73333C1.44444 8 1.2 7.91111 1 7.73333C0.8 7.53333 0.7 7.3 0.7 7.03333C0.7 6.81111 0.755556 6.61111 0.866667 6.43333C0.977778 6.25555 1.13333 6.11111 1.33333 6L12 0.566666C12.3111 0.433332 12.6444 0.366665 13 0.366665C13.3556 0.366665 13.6889 0.433332 14 0.566666ZM5.06667 6.16667H13H20.9333H5.06667ZM5.06667 6.16667H20.9333L13 2.16667L5.06667 6.16667Z" fill="#00897B"/>
</svg>
