<svg width="22" height="18" viewBox="0 0 22 18" fill="none" xmlns="http://www.w3.org/2000/svg">
<path d="M2.3 15.5C1.8 15.5 1.375 15.325 1.025 14.975C0.675 14.625 0.5 14.2 0.5 13.7V2.3C0.5 1.8 0.675 1.375 1.025 1.025C1.375 0.674999 1.8 0.499999 2.3 0.499999H17.7C18.2 0.499999 18.625 0.674999 18.975 1.025C19.325 1.375 19.5 1.8 19.5 2.3V7.6H2V13.7C2 13.8 2.025 13.875 2.075 13.925C2.14167 13.975 2.21667 14 2.3 14H10.85C11.0667 14 11.2417 14.075 11.375 14.225C11.525 14.3583 11.6 14.5333 11.6 14.75C11.6 14.9667 11.525 15.15 11.375 15.3C11.2417 15.4333 11.0667 15.5 10.85 15.5H2.3ZM2 4.4H18V2.3C18 2.21667 17.9667 2.15 17.9 2.1C17.85 2.03333 17.7833 2 17.7 2H2.3C2.21667 2 2.14167 2.03333 2.075 2.1C2.025 2.15 2 2.21667 2 2.3V4.4ZM18 17.75C17.7833 17.75 17.6 17.6833 17.45 17.55C17.3167 17.4 17.25 17.2167 17.25 17V14.75H15C14.7833 14.75 14.6 14.6833 14.45 14.55C14.3167 14.4 14.25 14.2167 14.25 14C14.25 13.7833 14.3167 13.6083 14.45 13.475C14.6 13.325 14.7833 13.25 15 13.25H17.25V11C17.25 10.7833 17.3167 10.6083 17.45 10.475C17.6 10.325 17.7833 10.25 18 10.25C18.2167 10.25 18.3917 10.325 18.525 10.475C18.675 10.6083 18.75 10.7833 18.75 11V13.25H21C21.2167 13.25 21.3917 13.325 21.525 13.475C21.675 13.6083 21.75 13.7833 21.75 14C21.75 14.2167 21.675 14.4 21.525 14.55C21.3917 14.6833 21.2167 14.75 21 14.75H18.75V17C18.75 17.2167 18.675 17.4 18.525 17.55C18.3917 17.6833 18.2167 17.75 18 17.75ZM2 14V13.25C2 11.8667 2 10.6917 2 9.725C2 8.74167 2 8.25 2 8.25V7.6V2.3C2 2.21667 2 2.15 2 2.1C2 2.03333 2 2 2 2C2 2 2 2.03333 2 2.1C2 2.15 2 2.21667 2 2.3V13.7C2 13.8 2 13.875 2 13.925C2 13.975 2 14 2 14Z" fill="white"/>
</svg>
