<svg width="26" height="26" viewBox="0 0 26 26" fill="none" xmlns="http://www.w3.org/2000/svg">
<path d="M24.2333 25.6667C23.9667 25.6667 23.7444 25.5778 23.5667 25.4C23.3889 25.2222 23.3 25 23.3 24.7333V1.26666C23.3 0.999998 23.3889 0.777776 23.5667 0.599998C23.7444 0.422221 23.9667 0.333332 24.2333 0.333332C24.5 0.333332 24.7222 0.422221 24.9 0.599998C25.0778 0.777776 25.1667 0.999998 25.1667 1.26666V24.7333C25.1667 25 25.0778 25.2222 24.9 25.4C24.7222 25.5778 24.5 25.6667 24.2333 25.6667ZM2.43333 10.0667C2.01111 10.0667 1.63333 9.91111 1.3 9.6C0.988889 9.28889 0.833333 8.91111 0.833333 8.46667C0.833333 8.02222 0.988889 7.64444 1.3 7.33333C1.63333 7.02222 2.01111 6.86666 2.43333 6.86666H18.5C18.9444 6.86666 19.3222 7.03333 19.6333 7.36666C19.9444 7.67778 20.1 8.04444 20.1 8.46667C20.1 8.91111 19.9444 9.28889 19.6333 9.6C19.3222 9.91111 18.9444 10.0667 18.5 10.0667H2.43333ZM10.4333 19.1333C10.0111 19.1333 9.63333 18.9778 9.3 18.6667C8.98889 18.3333 8.83333 17.9556 8.83333 17.5333C8.83333 17.0889 8.98889 16.7111 9.3 16.4C9.63333 16.0889 10.0111 15.9333 10.4333 15.9333H18.5C18.9444 15.9333 19.3222 16.0889 19.6333 16.4C19.9444 16.7111 20.1 17.0889 20.1 17.5333C20.1 17.9778 19.9444 18.3556 19.6333 18.6667C19.3222 18.9778 18.9444 19.1333 18.5 19.1333H10.4333Z" fill="#00897B"/>
</svg>
