<svg width="20" height="20" viewBox="0 0 20 20" fill="none" xmlns="http://www.w3.org/2000/svg">
<path d="M7.525 19.45C7.30833 19.5167 7.125 19.4917 6.975 19.375C6.825 19.2583 6.75 19.0917 6.75 18.875C6.75 18.775 6.775 18.6667 6.825 18.55C6.89167 18.4333 6.96667 18.3417 7.05 18.275L8.75 17.025V11.175L1.225 13.375C0.958333 13.4583 0.725 13.4333 0.525 13.3C0.341667 13.15 0.25 12.9333 0.25 12.65C0.25 12.5 0.291667 12.35 0.375 12.2C0.458333 12.05 0.566667 11.9417 0.7 11.875L8.75 7.125V1.5C8.75 1.13333 8.86667 0.833333 9.1 0.599999C9.33333 0.366665 9.63333 0.249999 10 0.249999C10.3667 0.249999 10.6667 0.366665 10.9 0.599999C11.1333 0.833333 11.25 1.13333 11.25 1.5V7.125L19.3 11.875C19.4333 11.9417 19.5417 12.0583 19.625 12.225C19.7083 12.375 19.75 12.5167 19.75 12.65C19.75 12.9333 19.65 13.15 19.45 13.3C19.2667 13.4333 19.0417 13.4583 18.775 13.375L11.25 11.175V17L12.95 18.275C13.0333 18.3417 13.1 18.4333 13.15 18.55C13.2167 18.6667 13.25 18.775 13.25 18.875C13.25 19.0917 13.175 19.2583 13.025 19.375C12.875 19.4917 12.6917 19.5167 12.475 19.45L10 18.725L7.525 19.45Z" fill="white"/>
</svg>
