<svg width="20" height="26" viewBox="0 0 20 26" fill="none" xmlns="http://www.w3.org/2000/svg">
<path d="M5.9 20.6H14.1C14.3444 20.6 14.5556 20.5111 14.7333 20.3333C14.9111 20.1556 15 19.9333 15 19.6667C15 19.4 14.9111 19.1778 14.7333 19C14.5556 18.8222 14.3444 18.7333 14.1 18.7333H5.9C5.65556 18.7333 5.44444 18.8222 5.26667 19C5.08889 19.1778 5 19.4 5 19.6667C5 19.9333 5.08889 20.1556 5.26667 20.3333C5.44444 20.5111 5.65556 20.6 5.9 20.6ZM5.9 15.1667H14.1C14.3444 15.1667 14.5556 15.0778 14.7333 14.9C14.9111 14.7222 15 14.5 15 14.2333C15 13.9889 14.9111 13.7778 14.7333 13.6C14.5556 13.4222 14.3444 13.3333 14.1 13.3333H5.9C5.65556 13.3333 5.44444 13.4222 5.26667 13.6C5.08889 13.7778 5 14 5 14.2667C5 14.5111 5.08889 14.7222 5.26667 14.9C5.44444 15.0778 5.65556 15.1667 5.9 15.1667ZM2.23333 25.6667C1.61111 25.6667 1.07778 25.4556 0.633334 25.0333C0.211112 24.5889 4.76837e-07 24.0556 4.76837e-07 23.4333V2.56667C4.76837e-07 1.94444 0.211112 1.42222 0.633334 0.999998C1.07778 0.555554 1.61111 0.333332 2.23333 0.333332H12.2333C12.5444 0.333332 12.8333 0.388887 13.1 0.499998C13.3667 0.61111 13.6111 0.777777 13.8333 0.999998L19.3333 6.5C19.5556 6.72222 19.7222 6.96667 19.8333 7.23333C19.9444 7.5 20 7.78889 20 8.1V23.4333C20 24.0556 19.7778 24.5889 19.3333 25.0333C18.9111 25.4556 18.3889 25.6667 17.7667 25.6667H2.23333ZM12.2667 2.16667H2.23333C2.14444 2.16667 2.05556 2.21111 1.96667 2.3C1.87778 2.38889 1.83333 2.47778 1.83333 2.56667V23.4333C1.83333 23.5222 1.87778 23.6111 1.96667 23.7C2.05556 23.7889 2.14444 23.8333 2.23333 23.8333H17.7667C17.8556 23.8333 17.9444 23.7889 18.0333 23.7C18.1222 23.6111 18.1667 23.5222 18.1667 23.4333V8.06667H13.3667C13.0556 8.06667 12.7889 7.95555 12.5667 7.73333C12.3667 7.51111 12.2667 7.24444 12.2667 6.93333V2.16667ZM1.83333 2.16667V6.93333C1.83333 7.24444 1.83333 7.51111 1.83333 7.73333C1.83333 7.95555 1.83333 8.06667 1.83333 8.06667V2.16667V6.93333C1.83333 7.24444 1.83333 7.51111 1.83333 7.73333C1.83333 7.95555 1.83333 8.06667 1.83333 8.06667V23.4333C1.83333 23.5222 1.83333 23.6111 1.83333 23.7C1.83333 23.7889 1.83333 23.8333 1.83333 23.8333C1.83333 23.8333 1.83333 23.7889 1.83333 23.7C1.83333 23.6111 1.83333 23.5222 1.83333 23.4333V2.56667C1.83333 2.47778 1.83333 2.38889 1.83333 2.3C1.83333 2.21111 1.83333 2.16667 1.83333 2.16667Z" fill="#00897B"/>
</svg>
