<svg width="64" height="64" viewBox="0 0 64 64" fill="none" xmlns="http://www.w3.org/2000/svg">
<path d="M35.3333 62.4167C34.8889 62.8611 34.3611 63.2222 33.75 63.5C33.1944 63.7222 32.6111 63.8333 32 63.8333C31.3889 63.8333 30.7778 63.7222 30.1667 63.5C29.6111 63.2222 29.1111 62.8611 28.6667 62.4167L1.58333 35.3333C1.13889 34.8889 0.805556 34.3889 0.583333 33.8333C0.361111 33.2222 0.25 32.6111 0.25 32C0.25 31.3889 0.361111 30.8056 0.583333 30.25C0.805556 29.6389 1.13889 29.1111 1.58333 28.6667L28.6667 1.58333C29.1111 1.13889 29.6111 0.805553 30.1667 0.583331C30.7778 0.361109 31.3889 0.249998 32 0.249998C32.6111 0.249998 33.1944 0.361109 33.75 0.583331C34.3611 0.805553 34.8889 1.13889 35.3333 1.58333L62.4167 28.6667C62.8611 29.1111 63.1944 29.6389 63.4167 30.25C63.6389 30.8056 63.75 31.3889 63.75 32C63.75 32.6111 63.6389 33.2222 63.4167 33.8333C63.1944 34.3889 62.8611 34.8889 62.4167 35.3333L35.3333 62.4167ZM32.75 59.6667L59.6667 32.75C59.8889 32.5278 60 32.2778 60 32C60 31.7222 59.8889 31.4722 59.6667 31.25L32.75 4.33333C32.5278 4.11111 32.2778 4 32 4C31.7222 4 31.4722 4.11111 31.25 4.33333L4.33333 31.25C4.11111 31.4722 4 31.7222 4 32C4 32.2778 4.11111 32.5278 4.33333 32.75L31.25 59.6667C31.4722 59.8889 31.7222 60 32 60C32.2778 60 32.5278 59.8889 32.75 59.6667ZM32 35.5833C32.5556 35.5833 33 35.4167 33.3333 35.0833C33.7222 34.6944 33.9167 34.25 33.9167 33.75V18.8333C33.9167 18.2778 33.7222 17.8333 33.3333 17.5C33 17.1111 32.5556 16.9167 32 16.9167C31.4444 16.9167 30.9722 17.1111 30.5833 17.5C30.25 17.8333 30.0833 18.2778 30.0833 18.8333V33.75C30.0833 34.25 30.25 34.6944 30.5833 35.0833C30.9722 35.4167 31.4444 35.5833 32 35.5833ZM32 43.75C32.5556 43.75 33.0278 43.5556 33.4167 43.1667C33.8611 42.7222 34.0833 42.2222 34.0833 41.6667C34.0833 41.0556 33.8611 40.5556 33.4167 40.1667C33.0278 39.7778 32.5556 39.5833 32 39.5833C31.4444 39.5833 30.9444 39.7778 30.5 40.1667C30.1111 40.5556 29.9167 41.0556 29.9167 41.6667C29.9167 42.2222 30.1111 42.7222 30.5 43.1667C30.9444 43.5556 31.4444 43.75 32 43.75Z" fill="#D32F2F"/>
</svg>
