<svg width="20" height="20" viewBox="0 0 20 20" fill="none" xmlns="http://www.w3.org/2000/svg">
<path d="M7 12.25C6.65 12.25 6.35 12.1333 6.1 11.9C5.86667 11.65 5.75 11.35 5.75 11C5.75 10.65 5.86667 10.3583 6.1 10.125C6.35 9.875 6.65 9.75 7 9.75C7.35 9.75 7.64167 9.875 7.875 10.125C8.125 10.3583 8.25 10.65 8.25 11C8.25 11.35 8.125 11.65 7.875 11.9C7.64167 12.1333 7.35 12.25 7 12.25ZM13 12.25C12.65 12.25 12.35 12.1333 12.1 11.9C11.8667 11.65 11.75 11.35 11.75 11C11.75 10.65 11.8667 10.3583 12.1 10.125C12.35 9.875 12.65 9.75 13 9.75C13.35 9.75 13.6417 9.875 13.875 10.125C14.125 10.3583 14.25 10.65 14.25 11C14.25 11.35 14.125 11.65 13.875 11.9C13.6417 12.1333 13.35 12.25 13 12.25ZM10 18C12.2333 18 14.125 17.225 15.675 15.675C17.225 14.125 18 12.2333 18 10C18 9.6 17.975 9.21667 17.925 8.85C17.875 8.46667 17.7833 8.1 17.65 7.75C17.3 7.83333 16.95 7.9 16.6 7.95C16.25 7.98333 15.8833 8 15.5 8C13.9833 8 12.55 7.675 11.2 7.025C9.85 6.375 8.7 5.46667 7.75 4.3C7.21667 5.6 6.45 6.73333 5.45 7.7C4.46667 8.65 3.31667 9.36667 2 9.85V10C2 12.2333 2.775 14.125 4.325 15.675C5.875 17.225 7.76667 18 10 18ZM10 19.5C8.68333 19.5 7.44167 19.25 6.275 18.75C5.125 18.25 4.125 17.575 3.275 16.725C2.425 15.875 1.75 14.875 1.25 13.725C0.75 12.5583 0.5 11.3167 0.5 10C0.5 8.68333 0.75 7.45 1.25 6.3C1.75 5.13333 2.425 4.125 3.275 3.275C4.125 2.425 5.125 1.75 6.275 1.25C7.44167 0.749999 8.68333 0.499999 10 0.499999C11.3167 0.499999 12.55 0.749999 13.7 1.25C14.8667 1.75 15.875 2.425 16.725 3.275C17.575 4.125 18.25 5.13333 18.75 6.3C19.25 7.45 19.5 8.68333 19.5 10C19.5 11.3167 19.25 12.5583 18.75 13.725C18.25 14.875 17.575 15.875 16.725 16.725C15.875 17.575 14.8667 18.25 13.7 18.75C12.55 19.25 11.3167 19.5 10 19.5ZM8.175 2.225C8.94167 3.625 9.99167 4.69167 11.325 5.425C12.675 6.14167 14.0667 6.5 15.5 6.5C15.7667 6.5 16.025 6.49167 16.275 6.475C16.5417 6.44167 16.8083 6.39167 17.075 6.325C16.4083 5.00833 15.4417 3.95833 14.175 3.175C12.9083 2.39167 11.5167 2 10 2C9.66667 2 9.35 2.025 9.05 2.075C8.76667 2.10833 8.475 2.15833 8.175 2.225ZM2.275 8.1C3.225 7.61667 4.11667 6.925 4.95 6.025C5.8 5.125 6.35 4.04167 6.6 2.775C5.5 3.275 4.575 3.99167 3.825 4.925C3.075 5.84167 2.55833 6.9 2.275 8.1Z" fill="white"/>
</svg>
