<svg width="26" height="26" viewBox="0 0 26 26" fill="none" xmlns="http://www.w3.org/2000/svg">
<path d="M11.0667 16.0333L7.86667 12.8C7.68889 12.6222 7.47778 12.5333 7.23333 12.5333C6.98889 12.5333 6.76667 12.6333 6.56667 12.8333C6.38889 13.0111 6.3 13.2333 6.3 13.5C6.3 13.7444 6.38889 13.9556 6.56667 14.1333L10.3 17.8667C10.5 18.0889 10.7556 18.2 11.0667 18.2C11.4 18.2 11.6667 18.0889 11.8667 17.8667L19.4333 10.3C19.6111 10.1444 19.7 9.94444 19.7 9.7C19.7 9.43333 19.6 9.21111 19.4 9.03333C19.2222 8.85556 19 8.76667 18.7333 8.76667C18.4667 8.76667 18.2444 8.85556 18.0667 9.03333L11.0667 16.0333ZM13 25.6667C11.2444 25.6667 9.58889 25.3444 8.03333 24.7C6.5 24.0333 5.15556 23.1333 4 22C2.86667 20.8444 1.96667 19.5 1.3 17.9667C0.655556 16.4111 0.333333 14.7556 0.333333 13C0.333333 11.2444 0.655556 9.6 1.3 8.06667C1.96667 6.51111 2.86667 5.16667 4 4.03333C5.15556 2.9 6.5 2 8.03333 1.33333C9.58889 0.666665 11.2444 0.333332 13 0.333332C14.7556 0.333332 16.4 0.666665 17.9333 1.33333C19.4889 2 20.8333 2.9 21.9667 4.03333C23.1 5.16667 24 6.51111 24.6667 8.06667C25.3333 9.6 25.6667 11.2444 25.6667 13C25.6667 14.7556 25.3333 16.4111 24.6667 17.9667C24 19.5 23.1 20.8444 21.9667 22C20.8333 23.1333 19.4889 24.0333 17.9333 24.7C16.4 25.3444 14.7556 25.6667 13 25.6667Z" fill="#00897B"/>
</svg>
