<svg xmlns="http://www.w3.org/2000/svg" width="32" height="32" viewBox="0 0 32 32">
  <g id="Group_17323" data-name="Group 17323" transform="translate(-687 -187)">
    <circle id="Ellipse_5515" data-name="Ellipse 5515" cx="16" cy="16" r="16" transform="translate(687 187)" fill="#f9e9dc"/>
    <path id="credit-card_1_" data-name="credit-card (1)" d="M2,8.077A2.077,2.077,0,0,1,4.077,6H19.31a2.077,2.077,0,0,1,2.077,2.077V8.77H2Zm0,2.077H21.387v7.616a2.077,2.077,0,0,1-2.077,2.077H4.077A2.077,2.077,0,0,1,2,17.771ZM13.078,15a.692.692,0,0,0,0,1.385h4.154a.692.692,0,0,0,0-1.385Z" transform="translate(691.307 190.076)" fill="#f58220" fill-rule="evenodd"/>
  </g>
</svg>
