<svg width="14" height="16" viewBox="0 0 14 16" fill="none" xmlns="http://www.w3.org/2000/svg">
<path d="M5.25 11.4167C5.11111 11.2917 5.04167 11.1389 5.04167 10.9583C5.04167 10.7778 5.11111 10.6181 5.25 10.4792L6.85417 8.875H0.666667C0.486111 8.875 0.326389 8.8125 0.1875 8.6875C0.0625002 8.54861 1.19209e-07 8.38889 1.19209e-07 8.20833C1.19209e-07 8.02778 0.0625002 7.875 0.1875 7.75C0.326389 7.61111 0.486111 7.54167 0.666667 7.54167H6.79167L5.20833 5.9375C5.08333 5.8125 5.02083 5.66667 5.02083 5.5C5.02083 5.33333 5.09028 5.18055 5.22917 5.04167C5.36806 4.90278 5.52778 4.83333 5.70833 4.83333C5.88889 4.83333 6.05556 4.90278 6.20833 5.04167L8.8125 7.66667C8.90972 7.75 8.97222 7.84028 9 7.9375C9.04167 8.03472 9.0625 8.13194 9.0625 8.22917C9.0625 8.32639 9.04167 8.42361 9 8.52083C8.97222 8.61806 8.90972 8.70833 8.8125 8.79167L6.16667 11.4375C6.04167 11.5625 5.89583 11.6319 5.72917 11.6458C5.5625 11.6458 5.40278 11.5694 5.25 11.4167ZM7.58333 15.5C7.41667 15.5 7.26389 15.4375 7.125 15.3125C6.98611 15.1736 6.91667 15.0139 6.91667 14.8333C6.91667 14.6528 6.98611 14.5 7.125 14.375C7.26389 14.2361 7.41667 14.1667 7.58333 14.1667H12.4167C12.4722 14.1667 12.5278 14.1389 12.5833 14.0833C12.6389 14.0278 12.6667 13.9722 12.6667 13.9167V2.5C12.6667 2.44444 12.6389 2.38889 12.5833 2.33333C12.5278 2.27778 12.4722 2.25 12.4167 2.25H7.58333C7.41667 2.25 7.26389 2.1875 7.125 2.0625C6.98611 1.92361 6.91667 1.76389 6.91667 1.58333C6.91667 1.40278 6.98611 1.25 7.125 1.125C7.26389 0.98611 7.41667 0.916666 7.58333 0.916666H12.4167C12.8611 0.916666 13.2361 1.06944 13.5417 1.375C13.8472 1.68055 14 2.05555 14 2.5V13.9167C14 14.3611 13.8472 14.7361 13.5417 15.0417C13.2361 15.3472 12.8611 15.5 12.4167 15.5H7.58333Z" fill="#757575"/>
</svg>
