<svg width="20" height="14" viewBox="0 0 20 14" fill="none" xmlns="http://www.w3.org/2000/svg">
<path d="M6.55 13.15L1.025 7.65C0.941667 7.55 0.875 7.45 0.825 7.35C0.791667 7.23333 0.775 7.11667 0.775 7C0.775 6.88333 0.791667 6.775 0.825 6.675C0.875 6.55833 0.941667 6.45833 1.025 6.375L6.55 0.849999C6.68333 0.699999 6.85 0.624999 7.05 0.624999C7.26667 0.624999 7.45 0.699999 7.6 0.849999C7.75 0.999999 7.825 1.18333 7.825 1.4C7.825 1.6 7.75 1.775 7.6 1.925L3.275 6.25H18.675C18.875 6.25 19.05 6.325 19.2 6.475C19.35 6.60833 19.425 6.78333 19.425 7C19.425 7.21667 19.35 7.4 19.2 7.55C19.05 7.68333 18.875 7.75 18.675 7.75H3.275L7.6 12.1C7.75 12.25 7.825 12.425 7.825 12.625C7.825 12.825 7.75 13 7.6 13.15C7.46667 13.3 7.29167 13.375 7.075 13.375C6.85833 13.375 6.68333 13.3 6.55 13.15Z" fill="#9E9E9E"/>
</svg>
