<svg width="18" height="12" viewBox="0 0 18 12" fill="none" xmlns="http://www.w3.org/2000/svg">
<path d="M1 11.625C0.783333 11.625 0.6 11.5583 0.45 11.425C0.316667 11.275 0.25 11.0917 0.25 10.875C0.25 10.675 0.316667 10.5 0.45 10.35C0.6 10.2 0.783333 10.125 1 10.125H17C17.2167 10.125 17.3917 10.2 17.525 10.35C17.675 10.5 17.75 10.675 17.75 10.875C17.75 11.0917 17.675 11.275 17.525 11.425C17.3917 11.5583 17.2167 11.625 17 11.625H1ZM1 6.75C0.783333 6.75 0.6 6.68333 0.45 6.55C0.316667 6.4 0.25 6.21667 0.25 6C0.25 5.78333 0.316667 5.60833 0.45 5.475C0.6 5.325 0.783333 5.25 1 5.25H17C17.2167 5.25 17.3917 5.325 17.525 5.475C17.675 5.60833 17.75 5.78333 17.75 6C17.75 6.21667 17.675 6.4 17.525 6.55C17.3917 6.68333 17.2167 6.75 17 6.75H1ZM1 1.875C0.783333 1.875 0.6 1.8 0.45 1.65C0.316667 1.5 0.25 1.325 0.25 1.125C0.25 0.908332 0.316667 0.733333 0.45 0.599999C0.6 0.449999 0.783333 0.374999 1 0.374999H17C17.2167 0.374999 17.3917 0.449999 17.525 0.599999C17.675 0.733333 17.75 0.908332 17.75 1.125C17.75 1.325 17.675 1.5 17.525 1.65C17.3917 1.8 17.2167 1.875 17 1.875H1Z" fill="#424242"/>
</svg>
