<svg width="20" height="23" viewBox="0 0 20 23" fill="none" xmlns="http://www.w3.org/2000/svg">
<path d="M1.83333 20.5H6.53333V12.5H13.4667V20.5H18.1667V8.26667L10 2.1L1.83333 8.26667V20.5ZM1.83333 22.3333C1.34444 22.3333 0.911112 22.1556 0.533334 21.8C0.177778 21.4222 4.76837e-07 20.9889 4.76837e-07 20.5V8.26667C4.76837e-07 7.97778 0.0666671 7.7 0.2 7.43333C0.333334 7.16667 0.511112 6.95555 0.733334 6.8L8.9 0.633331C9.07778 0.522221 9.25556 0.433332 9.43333 0.366665C9.61111 0.299998 9.8 0.266665 10 0.266665C10.2 0.266665 10.3889 0.299998 10.5667 0.366665C10.7444 0.433332 10.9222 0.522221 11.1 0.633331L19.2667 6.8C19.4889 6.95555 19.6667 7.16667 19.8 7.43333C19.9333 7.7 20 7.97778 20 8.26667V20.5C20 20.9889 19.8111 21.4222 19.4333 21.8C19.0778 22.1556 18.6556 22.3333 18.1667 22.3333H11.6333V14.3333H8.36667V22.3333H1.83333Z" fill="#00897B"/>
</svg>
