<svg width="29" height="23" viewBox="0 0 29 23" fill="none" xmlns="http://www.w3.org/2000/svg">
<path d="M2.56667 20C1.96667 20 1.44444 19.7778 1 19.3333C0.555556 18.8889 0.333333 18.3667 0.333333 17.7667V2.23333C0.333333 1.63333 0.555556 1.11111 1 0.666666C1.44444 0.222221 1.96667 -1.90735e-06 2.56667 -1.90735e-06H23.4333C24.0333 -1.90735e-06 24.5556 0.222221 25 0.666666C25.4444 1.11111 25.6667 1.63333 25.6667 2.23333V9.3H2.16667V17.7667C2.16667 17.9 2.2 18 2.26667 18.0667C2.35556 18.1333 2.45556 18.1667 2.56667 18.1667H14.0333C14.3 18.1667 14.5222 18.2556 14.7 18.4333C14.8778 18.6111 14.9667 18.8333 14.9667 19.1C14.9667 19.3444 14.8778 19.5556 14.7 19.7333C14.5222 19.9111 14.3 20 14.0333 20H2.56667ZM2.16667 5.2H23.8333V2.23333C23.8333 2.12222 23.7889 2.03333 23.7 1.96667C23.6333 1.87778 23.5444 1.83333 23.4333 1.83333H2.56667C2.45556 1.83333 2.35556 1.87778 2.26667 1.96667C2.2 2.03333 2.16667 2.12222 2.16667 2.23333V5.2ZM23.7333 23C23.4889 23 23.2778 22.9111 23.1 22.7333C22.9222 22.5556 22.8333 22.3333 22.8333 22.0667V19H19.7333C19.4889 19 19.2778 18.9111 19.1 18.7333C18.9222 18.5556 18.8333 18.3333 18.8333 18.0667C18.8333 17.8222 18.9222 17.6111 19.1 17.4333C19.2778 17.2556 19.4889 17.1667 19.7333 17.1667H22.8333V14.0667C22.8333 13.8222 22.9222 13.6111 23.1 13.4333C23.2778 13.2556 23.5 13.1667 23.7667 13.1667C24.0111 13.1667 24.2222 13.2556 24.4 13.4333C24.5778 13.6111 24.6667 13.8222 24.6667 14.0667V17.1667H27.7333C28 17.1667 28.2222 17.2556 28.4 17.4333C28.5778 17.6111 28.6667 17.8333 28.6667 18.1C28.6667 18.3444 28.5778 18.5556 28.4 18.7333C28.2222 18.9111 28 19 27.7333 19H24.6667V22.0667C24.6667 22.3333 24.5778 22.5556 24.4 22.7333C24.2222 22.9111 24 23 23.7333 23ZM2.16667 18.1667V17.1667C2.16667 15.3667 2.16667 13.8333 2.16667 12.5667C2.16667 11.3 2.16667 10.6667 2.16667 10.6667V9.3V2.23333C2.16667 2.12222 2.16667 2.03333 2.16667 1.96667C2.16667 1.87778 2.16667 1.83333 2.16667 1.83333C2.16667 1.83333 2.16667 1.87778 2.16667 1.96667C2.16667 2.03333 2.16667 2.12222 2.16667 2.23333V17.7667C2.16667 17.9 2.16667 18 2.16667 18.0667C2.16667 18.1333 2.16667 18.1667 2.16667 18.1667Z" fill="#00897B"/>
</svg>
