<svg width="20" height="20" viewBox="0 0 20 20" fill="none" xmlns="http://www.w3.org/2000/svg">
<path d="M10 9.56667C8.71111 9.56667 7.62222 9.13333 6.73333 8.26667C5.84444 7.37778 5.4 6.28889 5.4 5C5.4 3.71111 5.84444 2.62222 6.73333 1.73333C7.62222 0.844442 8.71111 0.399998 10 0.399998C11.2889 0.399998 12.3778 0.844442 13.2667 1.73333C14.1556 2.62222 14.6 3.71111 14.6 5C14.6 6.28889 14.1556 7.37778 13.2667 8.26667C12.3778 9.13333 11.2889 9.56667 10 9.56667ZM4.76837e-07 19.7333V16.9333C4.76837e-07 16.2444 0.177778 15.6333 0.533334 15.1C0.911112 14.5444 1.4 14.1222 2 13.8333C3.33333 13.1889 4.66667 12.7111 6 12.4C7.33333 12.0667 8.66667 11.9 10 11.9C11.3333 11.9 12.6667 12.0667 14 12.4C15.3333 12.7111 16.6667 13.1889 18 13.8333C18.6 14.1222 19.0778 14.5444 19.4333 15.1C19.8111 15.6333 20 16.2444 20 16.9333V19.7333H4.76837e-07ZM1.83333 17.9H18.1667V16.9333C18.1667 16.6222 18.0778 16.3444 17.9 16.1C17.7222 15.8333 17.4889 15.6222 17.2 15.4667C15.9778 14.8667 14.7778 14.4333 13.6 14.1667C12.4222 13.8778 11.2222 13.7333 10 13.7333C8.77778 13.7333 7.56667 13.8778 6.36667 14.1667C5.18889 14.4333 4 14.8667 2.8 15.4667C2.51111 15.6222 2.27778 15.8333 2.1 16.1C1.92222 16.3444 1.83333 16.6222 1.83333 16.9333V17.9ZM10 7.73333C10.7556 7.73333 11.4 7.46667 11.9333 6.93333C12.4667 6.4 12.7333 5.75555 12.7333 5C12.7333 4.22222 12.4667 3.56667 11.9333 3.03333C11.4 2.5 10.7556 2.23333 10 2.23333C9.24445 2.23333 8.6 2.5 8.06667 3.03333C7.53333 3.56667 7.26667 4.22222 7.26667 5C7.26667 5.75555 7.53333 6.4 8.06667 6.93333C8.6 7.46667 9.24445 7.73333 10 7.73333Z" fill="#00897B"/>
</svg>
