<svg width="30" height="20" viewBox="0 0 30 20" fill="none" xmlns="http://www.w3.org/2000/svg">
<path d="M24.1667 12.3333C23.9 12.3333 23.6778 12.2444 23.5 12.0667C23.3222 11.8889 23.2333 11.6667 23.2333 11.4V8.26667H20.1C19.8333 8.26667 19.6111 8.17778 19.4333 8C19.2556 7.82222 19.1667 7.6 19.1667 7.33333C19.1667 7.06667 19.2556 6.84444 19.4333 6.66667C19.6111 6.48889 19.8333 6.4 20.1 6.4H23.2333V3.26667C23.2333 3 23.3222 2.77778 23.5 2.6C23.6778 2.42222 23.9 2.33333 24.1667 2.33333C24.4333 2.33333 24.6556 2.42222 24.8333 2.6C25.0111 2.77778 25.1 3 25.1 3.26667V6.4H28.2333C28.5 6.4 28.7222 6.48889 28.9 6.66667C29.0778 6.84444 29.1667 7.06667 29.1667 7.33333C29.1667 7.6 29.0778 7.82222 28.9 8C28.7222 8.17778 28.5 8.26667 28.2333 8.26667H25.1V11.4C25.1 11.6667 25.0111 11.8889 24.8333 12.0667C24.6556 12.2444 24.4333 12.3333 24.1667 12.3333ZM10.8333 9.56667C9.54445 9.56667 8.45556 9.13333 7.56667 8.26667C6.67778 7.37778 6.23333 6.28889 6.23333 5C6.23333 3.71111 6.67778 2.62222 7.56667 1.73333C8.45556 0.844442 9.54445 0.399998 10.8333 0.399998C12.1222 0.399998 13.2111 0.844442 14.1 1.73333C14.9889 2.62222 15.4333 3.71111 15.4333 5C15.4333 6.28889 14.9889 7.37778 14.1 8.26667C13.2111 9.13333 12.1222 9.56667 10.8333 9.56667ZM1.96667 19.7333C1.63333 19.7333 1.35556 19.6333 1.13333 19.4333C0.933333 19.2111 0.833333 18.9444 0.833333 18.6333V16.9333C0.833333 16.2667 1.01111 15.6556 1.36667 15.1C1.72222 14.5444 2.21111 14.1222 2.83333 13.8333C4.21111 13.1667 5.55556 12.6778 6.86667 12.3667C8.17778 12.0556 9.5 11.9 10.8333 11.9C12.1667 11.9 13.4889 12.0556 14.8 12.3667C16.1111 12.6778 17.4556 13.1667 18.8333 13.8333C19.4556 14.1222 19.9444 14.5444 20.3 15.1C20.6556 15.6556 20.8333 16.2667 20.8333 16.9333V18.6333C20.8333 18.9444 20.7222 19.2111 20.5 19.4333C20.3 19.6333 20.0333 19.7333 19.7 19.7333H1.96667ZM2.66667 17.9H19V16.9333C19 16.6222 18.9111 16.3444 18.7333 16.1C18.5778 15.8333 18.3444 15.6222 18.0333 15.4667C16.7889 14.8667 15.5778 14.4333 14.4 14.1667C13.2444 13.8778 12.0556 13.7333 10.8333 13.7333C9.61111 13.7333 8.41111 13.8778 7.23333 14.1667C6.07778 14.4333 4.87778 14.8667 3.63333 15.4667C3.34444 15.6222 3.11111 15.8333 2.93333 16.1C2.75556 16.3444 2.66667 16.6222 2.66667 16.9333V17.9ZM10.8333 7.73333C11.5889 7.73333 12.2333 7.46667 12.7667 6.93333C13.3 6.4 13.5667 5.75555 13.5667 5C13.5667 4.22222 13.3 3.56667 12.7667 3.03333C12.2333 2.5 11.5889 2.23333 10.8333 2.23333C10.0778 2.23333 9.43333 2.5 8.9 3.03333C8.36667 3.56667 8.1 4.22222 8.1 5C8.1 5.75555 8.36667 6.4 8.9 6.93333C9.43333 7.46667 10.0778 7.73333 10.8333 7.73333Z" fill="#00897B"/>
</svg>
