<svg width="20" height="20" viewBox="0 0 20 20" fill="none" xmlns="http://www.w3.org/2000/svg">
<path d="M7.75 7.625V12.375C7.75 12.7417 7.90833 13.0167 8.225 13.2C8.54167 13.3667 8.85 13.3417 9.15 13.125L12.875 10.75C13.1583 10.5833 13.3 10.3333 13.3 10C13.3 9.66667 13.1583 9.41667 12.875 9.25L9.15 6.875C8.85 6.65833 8.54167 6.64167 8.225 6.825C7.90833 6.99167 7.75 7.25833 7.75 7.625ZM10 19.5C8.68333 19.5 7.44167 19.25 6.275 18.75C5.125 18.25 4.125 17.575 3.275 16.725C2.425 15.875 1.75 14.875 1.25 13.725C0.75 12.5583 0.5 11.3167 0.5 10C0.5 8.68333 0.75 7.45 1.25 6.3C1.75 5.13333 2.425 4.125 3.275 3.275C4.125 2.425 5.125 1.75 6.275 1.25C7.44167 0.749999 8.68333 0.499999 10 0.499999C11.3167 0.499999 12.55 0.749999 13.7 1.25C14.8667 1.75 15.875 2.425 16.725 3.275C17.575 4.125 18.25 5.13333 18.75 6.3C19.25 7.45 19.5 8.68333 19.5 10C19.5 11.3167 19.25 12.5583 18.75 13.725C18.25 14.875 17.575 15.875 16.725 16.725C15.875 17.575 14.8667 18.25 13.7 18.75C12.55 19.25 11.3167 19.5 10 19.5Z" fill="#00897B"/>
</svg>
