<svg width="51" height="57" viewBox="0 0 51 57" fill="none" xmlns="http://www.w3.org/2000/svg">
<path d="M20.25 56.8333C14.4167 55.7778 9.58333 52.9722 5.75 48.4167C1.91667 43.8056 1.19209e-06 38.4722 1.19209e-06 32.4167C1.19209e-06 28.8611 0.722223 25.4722 2.16667 22.25C3.66667 19.0278 5.77778 16.2778 8.5 14C8.83333 13.7222 9.22222 13.6111 9.66667 13.6667C10.1667 13.6667 10.5833 13.8333 10.9167 14.1667C11.3056 14.5556 11.4722 15.0278 11.4167 15.5833C11.4167 16.1389 11.1667 16.6111 10.6667 17C8.44445 18.9444 6.72222 21.2778 5.5 24C4.33333 26.6667 3.75 29.4722 3.75 32.4167C3.75 37.5278 5.33333 42 8.5 45.8333C11.7222 49.6111 15.7778 52.0278 20.6667 53.0833C21.1667 53.1389 21.5556 53.3611 21.8333 53.75C22.1667 54.1389 22.3333 54.5556 22.3333 55C22.3333 55.6111 22.1111 56.1111 21.6667 56.5C21.2778 56.8333 20.8056 56.9444 20.25 56.8333ZM29.8333 56.9167C29.2778 56.9722 28.7778 56.8333 28.3333 56.5C27.9444 56.1667 27.75 55.6944 27.75 55.0833C27.75 54.6389 27.8889 54.2222 28.1667 53.8333C28.5 53.4444 28.9167 53.1944 29.4167 53.0833C34.3611 51.9722 38.3889 49.5278 41.5 45.75C44.6667 41.9167 46.25 37.4722 46.25 32.4167C46.25 26.4722 44.1944 21.4444 40.0833 17.3333C35.9722 13.2222 30.9722 11.1667 25.0833 11.1667H22.8333L27 15.3333C27.3333 15.6667 27.5 16.1111 27.5 16.6667C27.5 17.1667 27.3333 17.6111 27 18C26.6111 18.3889 26.1389 18.5833 25.5833 18.5833C25.0833 18.5833 24.6389 18.3889 24.25 18L17.1667 11C16.9444 10.7222 16.7778 10.4444 16.6667 10.1667C16.5556 9.88889 16.5 9.58333 16.5 9.25C16.5 8.97222 16.5556 8.69444 16.6667 8.41666C16.7778 8.13888 16.9444 7.86111 17.1667 7.58333L24.25 0.499996C24.6389 0.166662 25.0833 -5.72205e-06 25.5833 -5.72205e-06C26.1389 -5.72205e-06 26.6111 0.166662 27 0.499996C27.3333 0.888885 27.5 1.36111 27.5 1.91667C27.5 2.47222 27.3333 2.91666 27 3.25L22.8333 7.41666H25.0833C32.0278 7.41666 37.9167 9.86111 42.75 14.75C47.6389 19.5833 50.0833 25.4722 50.0833 32.4167C50.0833 38.4722 48.1667 43.8056 44.3333 48.4167C40.5 52.9722 35.6667 55.8056 29.8333 56.9167Z" fill="#00897B"/>
</svg>
