<svg width="15" height="20" viewBox="0 0 15 20" fill="none" xmlns="http://www.w3.org/2000/svg">
<path d="M13.625 19.75C13.4083 19.75 13.225 19.6833 13.075 19.55C12.9417 19.4 12.875 19.2167 12.875 19V11.75H11.95C11.45 11.75 11.0167 11.575 10.65 11.225C10.3 10.875 10.125 10.45 10.125 9.95V5C10.125 3.75 10.525 2.66667 11.325 1.75C12.1417 0.833333 13.1583 0.341666 14.375 0.274998V19C14.375 19.2167 14.3 19.4 14.15 19.55C14 19.6833 13.825 19.75 13.625 19.75ZM4 19.75C3.78333 19.75 3.6 19.6833 3.45 19.55C3.31667 19.4 3.25 19.2167 3.25 19V10.65C2.43333 10.4833 1.75 10.075 1.2 9.425C0.65 8.775 0.375 8.00833 0.375 7.125V0.999999C0.375 0.783332 0.441667 0.608333 0.575 0.474999C0.725 0.324999 0.908334 0.249999 1.125 0.249999C1.325 0.249999 1.5 0.324999 1.65 0.474999C1.8 0.608333 1.875 0.783332 1.875 0.999999V7.125H3.25V0.999999C3.25 0.783332 3.31667 0.608333 3.45 0.474999C3.6 0.324999 3.78333 0.249999 4 0.249999C4.21667 0.249999 4.39167 0.324999 4.525 0.474999C4.675 0.608333 4.75 0.783332 4.75 0.999999V7.125H6.125V0.999999C6.125 0.783332 6.2 0.608333 6.35 0.474999C6.5 0.324999 6.675 0.249999 6.875 0.249999C7.09167 0.249999 7.26667 0.324999 7.4 0.474999C7.55 0.608333 7.625 0.783332 7.625 0.999999V7.125C7.625 8.00833 7.35 8.775 6.8 9.425C6.25 10.075 5.56667 10.4833 4.75 10.65V19C4.75 19.2167 4.675 19.4 4.525 19.55C4.39167 19.6833 4.21667 19.75 4 19.75Z" fill="#FB8C00"/>
</svg>
