<svg width="20" height="18" viewBox="0 0 20 18" fill="none" xmlns="http://www.w3.org/2000/svg">
<path d="M2 13.8V15.7C2 15.7833 2.025 15.8583 2.075 15.925C2.14167 15.975 2.21667 16 2.3 16H17.7C17.7833 16 17.85 15.975 17.9 15.925C17.9667 15.8583 18 15.7833 18 15.7V13.8H2ZM2.3 17.5C1.8 17.5 1.375 17.325 1.025 16.975C0.675 16.625 0.5 16.2 0.5 15.7V5.325C0.5 4.825 0.675 4.4 1.025 4.05C1.375 3.7 1.8 3.525 2.3 3.525H5.075C4.99167 3.375 4.925 3.21667 4.875 3.05C4.84167 2.88333 4.825 2.70833 4.825 2.525C4.825 1.825 5.06667 1.23333 5.55 0.749999C6.03333 0.266666 6.625 0.0249996 7.325 0.0249996C7.74167 0.0249996 8.125 0.133333 8.475 0.349999C8.84167 0.566665 9.15833 0.833332 9.425 1.15L9.975 1.9L10.55 1.15C10.8 0.816666 11.1 0.549999 11.45 0.349999C11.8167 0.133333 12.2083 0.0249996 12.625 0.0249996C13.325 0.0249996 13.9167 0.266666 14.4 0.749999C14.8833 1.23333 15.125 1.825 15.125 2.525C15.125 2.70833 15.1083 2.88333 15.075 3.05C15.0417 3.21667 14.975 3.375 14.875 3.525H17.7C18.2 3.525 18.625 3.7 18.975 4.05C19.325 4.4 19.5 4.825 19.5 5.325V15.7C19.5 16.2 19.325 16.625 18.975 16.975C18.625 17.325 18.2 17.5 17.7 17.5H2.3ZM2 11.2H18V5.325C18 5.24167 17.9667 5.175 17.9 5.125C17.85 5.05833 17.7833 5.025 17.7 5.025H12.225L13.85 7.25C13.9667 7.4 14 7.56667 13.95 7.75C13.9 7.93333 13.8083 8.1 13.675 8.25C13.5083 8.36667 13.325 8.40833 13.125 8.375C12.925 8.34167 12.7667 8.24167 12.65 8.075L9.975 4.475L7.3 8.1C7.16667 8.28333 7 8.39167 6.8 8.425C6.6 8.44167 6.43333 8.38333 6.3 8.25C6.11667 8.11667 6.00833 7.95 5.975 7.75C5.95833 7.55 6.00833 7.375 6.125 7.225L7.7 5.025H2.3C2.21667 5.025 2.14167 5.05833 2.075 5.125C2.025 5.175 2 5.24167 2 5.325V11.2ZM7.325 3.525C7.60833 3.525 7.84167 3.43333 8.025 3.25C8.225 3.05 8.325 2.80833 8.325 2.525C8.325 2.24167 8.225 2.00833 8.025 1.825C7.84167 1.625 7.60833 1.525 7.325 1.525C7.04167 1.525 6.8 1.625 6.6 1.825C6.41667 2.00833 6.325 2.24167 6.325 2.525C6.325 2.80833 6.41667 3.05 6.6 3.25C6.8 3.43333 7.04167 3.525 7.325 3.525ZM12.625 3.525C12.9083 3.525 13.1417 3.43333 13.325 3.25C13.525 3.05 13.625 2.80833 13.625 2.525C13.625 2.24167 13.525 2.00833 13.325 1.825C13.1417 1.625 12.9083 1.525 12.625 1.525C12.3417 1.525 12.1 1.625 11.9 1.825C11.7167 2.00833 11.625 2.24167 11.625 2.525C11.625 2.80833 11.7167 3.05 11.9 3.25C12.1 3.43333 12.3417 3.525 12.625 3.525Z" fill="white"/>
</svg>
