<svg width="20" height="14" viewBox="0 0 20 14" fill="none" xmlns="http://www.w3.org/2000/svg">
<path d="M12.225 13.15C12.075 13.0167 11.9917 12.85 11.975 12.65C11.975 12.4333 12.05 12.25 12.2 12.1L16.55 7.75H1.15C0.933334 7.75 0.75 7.68333 0.6 7.55C0.466667 7.4 0.4 7.21667 0.4 7C0.4 6.78333 0.466667 6.60833 0.6 6.475C0.75 6.325 0.933334 6.25 1.15 6.25H16.55L12.2 1.9C12.0667 1.76667 11.9917 1.59167 11.975 1.375C11.975 1.15833 12.05 0.983333 12.2 0.849999C12.3333 0.699999 12.5083 0.624999 12.725 0.624999C12.9417 0.624999 13.1167 0.699999 13.25 0.849999L18.775 6.375C18.875 6.45833 18.9417 6.55833 18.975 6.675C19.0083 6.775 19.025 6.88333 19.025 7C19.025 7.11667 19.0083 7.23333 18.975 7.35C18.9417 7.45 18.875 7.55 18.775 7.65L13.25 13.15C13.1167 13.3 12.9417 13.375 12.725 13.375C12.525 13.375 12.3583 13.3 12.225 13.15Z" fill="white"/>
</svg>
