<svg width="26" height="25" viewBox="0 0 26 25" fill="none" xmlns="http://www.w3.org/2000/svg">
<path d="M18.3333 11.5C18.6667 11.5 18.9444 11.3889 19.1667 11.1667C19.3889 10.9444 19.5 10.6667 19.5 10.3333C19.5 10 19.3889 9.72222 19.1667 9.5C18.9444 9.27778 18.6667 9.16667 18.3333 9.16667C18 9.16667 17.7222 9.27778 17.5 9.5C17.2778 9.72222 17.1667 10 17.1667 10.3333C17.1667 10.6667 17.2778 10.9444 17.5 11.1667C17.7222 11.3889 18 11.5 18.3333 11.5ZM8.6 8.5H13.4C13.6667 8.5 13.8889 8.41111 14.0667 8.23333C14.2444 8.05555 14.3333 7.84444 14.3333 7.6C14.3333 7.33333 14.2444 7.11111 14.0667 6.93333C13.8889 6.75555 13.6667 6.66667 13.4 6.66667H8.6C8.33333 6.66667 8.11111 6.75555 7.93333 6.93333C7.75556 7.11111 7.66667 7.33333 7.66667 7.6C7.66667 7.84444 7.75556 8.05555 7.93333 8.23333C8.11111 8.41111 8.33333 8.5 8.6 8.5ZM5.2 24.3333C4.73333 24.3333 4.28889 24.1778 3.86667 23.8667C3.44444 23.5333 3.16667 23.1444 3.03333 22.7C2.47778 20.7667 2.02222 19.1333 1.66667 17.8C1.33333 16.4444 1.06667 15.2889 0.866667 14.3333C0.666667 13.3556 0.522222 12.5111 0.433333 11.8C0.366667 11.0667 0.333333 10.3556 0.333333 9.66667C0.333333 7.8 0.977778 6.22222 2.26667 4.93333C3.55556 3.64444 5.13333 3 7 3H14C14.6 2.2 15.3333 1.55555 16.2 1.06667C17.0667 0.577777 18 0.333332 19 0.333332C19.3778 0.333332 19.6889 0.466665 19.9333 0.733332C20.2 0.977776 20.3333 1.28889 20.3333 1.66667C20.3333 1.75555 20.3222 1.84444 20.3 1.93333C20.2778 2.02222 20.2556 2.11111 20.2333 2.2C20.1222 2.44444 20.0222 2.72222 19.9333 3.03333C19.8444 3.34444 19.7556 3.73333 19.6667 4.2L23.1667 7.66667H24.5333C24.8667 7.66667 25.1333 7.77778 25.3333 8C25.5556 8.2 25.6667 8.46667 25.6667 8.8V15C25.6667 15.2444 25.6 15.4667 25.4667 15.6667C25.3333 15.8444 25.1333 15.9778 24.8667 16.0667L22.0333 17L20.3333 22.7333C20.1778 23.2222 19.9 23.6111 19.5 23.9C19.1 24.1889 18.6444 24.3333 18.1333 24.3333H15.9C15.3 24.3333 14.7778 24.1111 14.3333 23.6667C13.8889 23.2222 13.6667 22.7 13.6667 22.1V21.6667H9.66667V22.1C9.66667 22.7 9.44444 23.2222 9 23.6667C8.55556 24.1111 8.03333 24.3333 7.43333 24.3333H5.2ZM5.2 22.5H7.43333C7.54445 22.5 7.63333 22.4667 7.7 22.4C7.78889 22.3111 7.83333 22.2111 7.83333 22.1V19.8333H15.5V22.1C15.5 22.2111 15.5333 22.3111 15.6 22.4C15.6889 22.4667 15.7889 22.5 15.9 22.5H18.1333C18.2444 22.5 18.3333 22.4778 18.4 22.4333C18.4667 22.3667 18.5111 22.2889 18.5333 22.2L20.5333 15.6L23.8333 14.4667V9.5H22.4L17.8333 4.93333C17.8333 4.53333 17.8667 4.1 17.9333 3.63333C18 3.16667 18.1111 2.71111 18.2667 2.26666C17.5556 2.44444 16.9222 2.76667 16.3667 3.23333C15.8111 3.7 15.4 4.23333 15.1333 4.83333H7C5.66667 4.83333 4.52222 5.31111 3.56667 6.26667C2.63333 7.2 2.16667 8.33333 2.16667 9.66667C2.16667 10.5778 2.38889 12.1222 2.83333 14.3C3.3 16.4778 3.95556 19.1 4.8 22.1667C4.82222 22.2556 4.86667 22.3333 4.93333 22.4C5.02222 22.4667 5.11111 22.5 5.2 22.5Z" fill="#00897B"/>
</svg>
