<svg width="14" height="14" viewBox="0 0 14 14" fill="none" xmlns="http://www.w3.org/2000/svg">
<path d="M7.04167 13.25C5.29167 13.25 3.8125 12.6458 2.60417 11.4375C1.39583 10.2292 0.791667 8.75 0.791667 7C0.791667 5.25 1.39583 3.77083 2.60417 2.5625C3.8125 1.35417 5.29167 0.749999 7.04167 0.749999C8 0.749999 8.89583 0.965277 9.72917 1.39583C10.5764 1.8125 11.2917 2.40278 11.875 3.16667V1.41667C11.875 1.23611 11.9444 1.08333 12.0833 0.958333C12.2222 0.819443 12.375 0.749999 12.5417 0.749999C12.7222 0.749999 12.875 0.819443 13 0.958333C13.1389 1.08333 13.2083 1.23611 13.2083 1.41667V5.16667C13.2083 5.38889 13.1319 5.58333 12.9792 5.75C12.8264 5.90278 12.6389 5.97917 12.4167 5.97917H8.66667C8.48611 5.97917 8.32639 5.90972 8.1875 5.77083C8.0625 5.63194 8 5.47917 8 5.3125C8 5.13194 8.0625 4.97917 8.1875 4.85417C8.32639 4.71528 8.48611 4.64583 8.66667 4.64583H11.3125C10.8681 3.86805 10.2639 3.25 9.5 2.79167C8.75 2.31944 7.93056 2.08333 7.04167 2.08333C5.66667 2.08333 4.5 2.5625 3.54167 3.52083C2.59722 4.47917 2.125 5.63889 2.125 7C2.125 8.36111 2.59722 9.52083 3.54167 10.4792C4.5 11.4375 5.66667 11.9167 7.04167 11.9167C8.01389 11.9167 8.89583 11.6667 9.6875 11.1667C10.4931 10.6528 11.0903 9.95139 11.4792 9.0625C11.5347 8.95139 11.625 8.85417 11.75 8.77083C11.875 8.6875 12 8.64583 12.125 8.64583C12.3889 8.64583 12.5833 8.73611 12.7083 8.91667C12.8333 9.09722 12.8403 9.29861 12.7292 9.52083C12.2292 10.6458 11.4653 11.5486 10.4375 12.2292C9.42361 12.9097 8.29167 13.25 7.04167 13.25Z" fill="#757575"/>
</svg>
