<svg width="13" height="14" viewBox="0 0 13 14" fill="none" xmlns="http://www.w3.org/2000/svg">
<path d="M3.85469 13.3667C3.52135 13.3667 3.23802 13.25 3.00469 13.0167C2.77135 12.7833 2.65469 12.5 2.65469 12.1667C2.65469 11.8333 2.77135 11.55 3.00469 11.3167C3.23802 11.0833 3.52135 10.9667 3.85469 10.9667C4.18802 10.9667 4.47135 11.0833 4.70469 11.3167C4.93802 11.55 5.05469 11.8333 5.05469 12.1667C5.05469 12.5 4.93802 12.7833 4.70469 13.0167C4.47135 13.25 4.18802 13.3667 3.85469 13.3667ZM10.3047 13.3667C9.97136 13.3667 9.68802 13.25 9.45469 13.0167C9.22135 12.7833 9.10469 12.5 9.10469 12.1667C9.10469 11.8333 9.22135 11.55 9.45469 11.3167C9.68802 11.0833 9.97136 10.9667 10.3047 10.9667C10.638 10.9667 10.9214 11.0833 11.1547 11.3167C11.388 11.55 11.5047 11.8333 11.5047 12.1667C11.5047 12.5 11.388 12.7833 11.1547 13.0167C10.9214 13.25 10.638 13.3667 10.3047 13.3667ZM3.15469 2.88333L4.78802 6.35H9.42135L11.2214 3.06667C11.2436 3.02222 11.2436 2.98333 11.2214 2.95C11.1991 2.90555 11.1658 2.88333 11.1214 2.88333H3.15469ZM3.83802 10.0667C3.39358 10.0667 3.05469 9.87222 2.82135 9.48333C2.58802 9.08333 2.58247 8.68889 2.80469 8.3L3.72135 6.61667L1.32135 1.56667H0.571354C0.438021 1.56667 0.315799 1.51667 0.204688 1.41667C0.104688 1.30555 0.0546875 1.17778 0.0546875 1.03333C0.0546875 0.888888 0.104688 0.766666 0.204688 0.666666C0.315799 0.555555 0.443576 0.499999 0.588021 0.499999H1.60469C1.72691 0.499999 1.83802 0.533333 1.93802 0.599999C2.03802 0.655555 2.1158 0.744444 2.17135 0.866666L2.63802 1.81667H11.938C12.238 1.81667 12.4491 1.93889 12.5714 2.18333C12.7047 2.41667 12.7047 2.65 12.5714 2.88333L10.4047 6.78333C10.2936 6.98333 10.1436 7.13889 9.95469 7.25C9.7658 7.36111 9.56024 7.41667 9.33802 7.41667H4.50469L3.78802 8.75C3.75469 8.80556 3.74913 8.86111 3.77135 8.91667C3.80469 8.97222 3.85469 9 3.92135 9H10.988C11.1214 9 11.238 9.05556 11.338 9.16667C11.4491 9.27778 11.5047 9.4 11.5047 9.53333C11.5047 9.67778 11.4491 9.80556 11.338 9.91667C11.238 10.0167 11.1158 10.0667 10.9714 10.0667H3.83802ZM4.78802 6.35H9.42135H4.78802Z" fill="#546E7A"/>
</svg>
