<svg width="16" height="16" viewBox="0 0 16 16" fill="none" xmlns="http://www.w3.org/2000/svg">
<path d="M1.41667 11.9792V13.5C1.41667 13.5694 1.4375 13.6319 1.47917 13.6875C1.53472 13.7292 1.59722 13.75 1.66667 13.75H14.3333C14.4028 13.75 14.4583 13.7292 14.5 13.6875C14.5556 13.6319 14.5833 13.5694 14.5833 13.5V11.9792H1.41667ZM1.66667 15.0833C1.23611 15.0833 0.861111 14.9306 0.541667 14.625C0.236111 14.3056 0.0833334 13.9306 0.0833334 13.5V5.02083C0.0833334 4.59028 0.236111 4.22222 0.541667 3.91667C0.861111 3.59722 1.23611 3.4375 1.66667 3.4375H3.75C3.69444 3.3125 3.64583 3.19444 3.60417 3.08333C3.57639 2.95833 3.5625 2.81944 3.5625 2.66667C3.5625 2.05555 3.77083 1.54861 4.1875 1.14583C4.61806 0.729166 5.13195 0.520833 5.72917 0.520833C6.09028 0.520833 6.41667 0.618055 6.70833 0.812499C7.01389 1.00694 7.28472 1.23611 7.52083 1.5L7.97917 2.08333L8.45833 1.5C8.69444 1.23611 8.95833 1.00694 9.25 0.812499C9.55556 0.618055 9.88889 0.520833 10.25 0.520833C10.8472 0.520833 11.3542 0.729166 11.7708 1.14583C12.1875 1.54861 12.3958 2.05555 12.3958 2.66667C12.3958 2.81944 12.3819 2.95833 12.3542 3.08333C12.3403 3.19444 12.2986 3.3125 12.2292 3.4375H14.3333C14.7639 3.4375 15.1319 3.59722 15.4375 3.91667C15.7569 4.22222 15.9167 4.59028 15.9167 5.02083V13.5C15.9167 13.9306 15.7569 14.3056 15.4375 14.625C15.1319 14.9306 14.7639 15.0833 14.3333 15.0833H1.66667ZM1.41667 9.79167H14.5833V5.02083C14.5833 4.95139 14.5556 4.89583 14.5 4.85417C14.4583 4.79861 14.4028 4.77083 14.3333 4.77083H10.0208L11.2708 6.5C11.3819 6.65278 11.4097 6.8125 11.3542 6.97917C11.3125 7.13194 11.2292 7.27778 11.1042 7.41667C10.9514 7.52778 10.7847 7.56944 10.6042 7.54167C10.4236 7.51389 10.2778 7.42361 10.1667 7.27083L7.97917 4.3125L5.77083 7.29167C5.65972 7.44444 5.51389 7.53472 5.33333 7.5625C5.15278 7.59028 5 7.54167 4.875 7.41667C4.72222 7.29167 4.63194 7.13889 4.60417 6.95833C4.57639 6.77778 4.61806 6.61806 4.72917 6.47917L5.95833 4.77083H1.66667C1.59722 4.77083 1.53472 4.79861 1.47917 4.85417C1.4375 4.89583 1.41667 4.95139 1.41667 5.02083V9.79167ZM5.70833 3.47917C5.94444 3.47917 6.13889 3.40278 6.29167 3.25C6.44444 3.08333 6.52083 2.88889 6.52083 2.66667C6.52083 2.43056 6.44444 2.23611 6.29167 2.08333C6.13889 1.93056 5.94444 1.85417 5.70833 1.85417C5.48611 1.85417 5.29167 1.93056 5.125 2.08333C4.97222 2.23611 4.89583 2.43056 4.89583 2.66667C4.89583 2.88889 4.97222 3.08333 5.125 3.25C5.29167 3.40278 5.48611 3.47917 5.70833 3.47917ZM10.2292 3.47917C10.4653 3.47917 10.6597 3.40278 10.8125 3.25C10.9653 3.08333 11.0417 2.88889 11.0417 2.66667C11.0417 2.43056 10.9653 2.23611 10.8125 2.08333C10.6597 1.93056 10.4653 1.85417 10.2292 1.85417C10.0069 1.85417 9.8125 1.93056 9.64583 2.08333C9.49306 2.23611 9.41667 2.43056 9.41667 2.66667C9.41667 2.88889 9.49306 3.08333 9.64583 3.25C9.8125 3.40278 10.0069 3.47917 10.2292 3.47917Z" fill="#757575"/>
</svg>
