<svg width="11" height="12" viewBox="0 0 11 12" fill="none" xmlns="http://www.w3.org/2000/svg">
<path d="M1.09818 11.6667C0.931511 11.6667 0.781511 11.6056 0.648177 11.4833C0.525955 11.35 0.464844 11.2 0.464844 11.0333V1.6C0.464844 1.24444 0.587066 0.944443 0.831511 0.699999C1.07596 0.455555 1.37596 0.333333 1.73151 0.333333H5.24818C5.60373 0.333333 5.90373 0.455555 6.14818 0.699999C6.39262 0.944443 6.51484 1.24444 6.51484 1.6V5.9H7.41484C7.68151 5.9 7.90373 5.98889 8.08151 6.16667C8.2704 6.34444 8.36484 6.56111 8.36484 6.81667V10.1C8.36484 10.3111 8.43151 10.4889 8.56484 10.6333C8.70929 10.7667 8.88151 10.8333 9.08151 10.8333C9.28151 10.8333 9.44818 10.7667 9.58151 10.6333C9.72596 10.4889 9.79818 10.3111 9.79818 10.1V5.46667C9.68707 5.51111 9.57596 5.54444 9.46484 5.56667C9.36484 5.58889 9.25373 5.6 9.13151 5.6C8.7204 5.6 8.36484 5.45555 8.06484 5.16667C7.77596 4.87778 7.63151 4.52778 7.63151 4.11667C7.63151 3.78333 7.73151 3.48889 7.93151 3.23333C8.13151 2.97778 8.38707 2.80556 8.69818 2.71667L7.53151 1.53333C7.45373 1.45555 7.40929 1.36111 7.39818 1.25C7.39818 1.13889 7.44262 1.03889 7.53151 0.949999C7.6204 0.86111 7.7204 0.816666 7.83151 0.816666C7.94262 0.816666 8.03707 0.86111 8.11484 0.949999L10.1648 2.96667C10.3204 3.12222 10.4371 3.3 10.5148 3.5C10.6037 3.68889 10.6482 3.89444 10.6482 4.11667V10.1C10.6482 10.5444 10.4926 10.9167 10.1815 11.2167C9.88151 11.5167 9.51484 11.6667 9.08151 11.6667C8.64818 11.6667 8.27596 11.5167 7.96484 11.2167C7.66484 10.9167 7.51484 10.5444 7.51484 10.1V6.93333C7.51484 6.87778 7.49262 6.83333 7.44818 6.8C7.41484 6.75556 7.3704 6.73333 7.31484 6.73333H6.51484V11.0333C6.51484 11.2 6.44818 11.35 6.31484 11.4833C6.19262 11.6056 6.04818 11.6667 5.88151 11.6667H1.09818ZM1.53151 4.8H5.44818V1.6C5.44818 1.55556 5.42596 1.51111 5.38151 1.46667C5.33707 1.42222 5.29262 1.4 5.24818 1.4H1.73151C1.68707 1.4 1.64262 1.42222 1.59818 1.46667C1.55373 1.51111 1.53151 1.55556 1.53151 1.6V4.8ZM9.14818 4.76667C9.33707 4.76667 9.49262 4.70556 9.61484 4.58333C9.74818 4.45 9.81484 4.28889 9.81484 4.1C9.81484 3.91111 9.74818 3.75556 9.61484 3.63333C9.49262 3.5 9.33707 3.43333 9.14818 3.43333C8.95929 3.43333 8.79818 3.5 8.66484 3.63333C8.54262 3.75556 8.48151 3.91111 8.48151 4.1C8.48151 4.28889 8.54262 4.45 8.66484 4.58333C8.79818 4.70556 8.95929 4.76667 9.14818 4.76667ZM1.53151 10.6H5.44818V5.86667H1.53151V10.6ZM5.44818 10.6H1.53151H5.44818Z" fill="#546E7A"/>
</svg>
