<svg width="16" height="16" viewBox="0 0 16 16" fill="none" xmlns="http://www.w3.org/2000/svg">
<path d="M8 10.3333L10.1042 11.9167C10.2708 12.0556 10.4375 12.0694 10.6042 11.9583C10.7708 11.8333 10.8264 11.6667 10.7708 11.4583L9.95833 8.8125L12 7.375C12.1806 7.25 12.2361 7.09028 12.1667 6.89583C12.1111 6.6875 11.9722 6.58333 11.75 6.58333H9.25L8.39583 3.83333C8.34028 3.63889 8.20833 3.54167 8 3.54167C7.79167 3.54167 7.65972 3.63889 7.60417 3.83333L6.77083 6.58333H4.25C4.02778 6.58333 3.88194 6.6875 3.8125 6.89583C3.75694 7.09028 3.81944 7.25 4 7.375L6.04167 8.8125L5.22917 11.4583C5.17361 11.6667 5.22917 11.8333 5.39583 11.9583C5.57639 12.0694 5.75 12.0556 5.91667 11.9167L8 10.3333ZM8 15.9167C6.90278 15.9167 5.86806 15.7083 4.89583 15.2917C3.9375 14.875 3.10417 14.3125 2.39583 13.6042C1.6875 12.8958 1.125 12.0625 0.708333 11.1042C0.291667 10.1319 0.0833334 9.09722 0.0833334 8C0.0833334 6.90278 0.291667 5.875 0.708333 4.91667C1.125 3.94444 1.6875 3.10417 2.39583 2.39583C3.10417 1.6875 3.9375 1.125 4.89583 0.708333C5.86806 0.291666 6.90278 0.0833325 8 0.0833325C9.09722 0.0833325 10.125 0.291666 11.0833 0.708333C12.0556 1.125 12.8958 1.6875 13.6042 2.39583C14.3125 3.10417 14.875 3.94444 15.2917 4.91667C15.7083 5.875 15.9167 6.90278 15.9167 8C15.9167 9.09722 15.7083 10.1319 15.2917 11.1042C14.875 12.0625 14.3125 12.8958 13.6042 13.6042C12.8958 14.3125 12.0556 14.875 11.0833 15.2917C10.125 15.7083 9.09722 15.9167 8 15.9167ZM8 14.5833C9.81944 14.5833 11.3681 13.9444 12.6458 12.6667C13.9375 11.375 14.5833 9.81944 14.5833 8C14.5833 6.18056 13.9375 4.63194 12.6458 3.35417C11.3681 2.0625 9.81944 1.41667 8 1.41667C6.18056 1.41667 4.625 2.0625 3.33333 3.35417C2.05556 4.63194 1.41667 6.18056 1.41667 8C1.41667 9.81944 2.05556 11.375 3.33333 12.6667C4.625 13.9444 6.18056 14.5833 8 14.5833Z" fill="#757575"/>
</svg>
