<svg width="14" height="15" viewBox="0 0 14 15" fill="none" xmlns="http://www.w3.org/2000/svg">
<path d="M3.975 13.975C3.64167 14.2583 3.29167 14.275 2.925 14.025C2.575 13.7583 2.45833 13.4167 2.575 13L3.725 9.2L0.825 7.15C0.475 6.88333 0.366667 6.54167 0.5 6.125C0.65 5.70833 0.941667 5.5 1.375 5.5H4.975L6.125 1.625C6.20833 1.40833 6.325 1.25 6.475 1.15C6.64167 1.03333 6.81667 0.974999 7 0.974999C7.18333 0.974999 7.35 1.03333 7.5 1.15C7.66667 1.25 7.79167 1.40833 7.875 1.625L9.025 5.5H12.625C13.0583 5.5 13.3417 5.70833 13.475 6.125C13.625 6.54167 13.525 6.88333 13.175 7.15L10.275 9.2L11.425 13C11.5417 13.4167 11.4167 13.7583 11.05 14.025C10.7 14.275 10.3583 14.2583 10.025 13.975L7 11.675L3.975 13.975Z" fill="white"/>
</svg>
