<svg width="48" height="64" viewBox="0 0 48 64" fill="none" xmlns="http://www.w3.org/2000/svg">
<path d="M43.5841 7.9615H41.8023L23.999 10.5369L6.19564 7.9615H4.15653C1.95799 7.9615 0.175781 6.17928 0.175781 3.98075C0.175652 1.78221 1.95799 0 4.15653 0H43.5841C45.7827 0 47.5649 1.78221 47.5649 3.98075C47.565 6.17928 45.7827 7.9615 43.5841 7.9615Z" fill="#B98080"/>
<path d="M43.8397 0H39.9766C42.1751 0 43.9573 1.78221 43.9573 3.98075C43.9573 6.17928 42.1751 7.9615 39.9766 7.9615H43.8397C46.0383 7.9615 47.8205 6.17928 47.8205 3.98075C47.8206 1.78221 46.0383 0 43.8397 0Z" fill="#AE6C6C"/>
<path d="M41.5444 12.9592V7.96191H6.19531V12.9592C6.19531 20.7113 11.1502 27.3052 18.0657 29.7488C19.0202 30.0861 19.6584 30.9881 19.6584 32.0003C19.6584 33.0126 19.0202 33.9146 18.0657 34.2517C11.1504 36.6953 6.19531 43.2893 6.19531 51.0414V56.0387H41.5443V51.0414C41.5443 43.2893 36.5894 36.6953 29.6739 34.2517C28.7194 33.9145 28.0813 33.0124 28.0813 32.0003H28.3388C28.3388 30.988 28.7194 30.0861 29.6739 29.7488C36.5894 27.3054 41.5444 20.7113 41.5444 12.9592Z" fill="#EFEDEF"/>
<path d="M6.19531 7.96191V10.4857H35.4653C36.8314 10.4857 37.9388 11.5932 37.9388 12.9592C37.9388 20.6872 33.0145 27.2643 26.1328 29.7259C25.2813 30.0305 24.63 30.7574 24.5009 31.6523C24.3351 32.8007 25.0058 33.8762 26.0684 34.2517C32.9838 36.6953 37.9388 43.2894 37.9388 51.0414V56.0387H41.802V51.0414C41.802 43.3134 36.8777 36.7363 29.996 34.2747C29.1445 33.9701 28.4932 33.2432 28.364 32.3482C28.1983 31.1998 28.869 30.1243 29.9316 29.7488C36.8469 27.3052 41.802 20.7112 41.802 12.9592V10.4859V7.96191H6.19531Z" fill="#D7D0D6"/>
<path d="M43.5841 63.9998H4.15653C1.95799 63.9998 0.175781 62.2176 0.175781 60.0191C0.175781 57.8206 1.95799 56.0383 4.15653 56.0383H6.1959L23.9992 53.4629L41.8026 56.0383H43.5844C45.7829 56.0383 47.5651 57.8206 47.5651 60.0191C47.565 62.2176 45.7827 63.9998 43.5841 63.9998Z" fill="#B98080"/>
<path d="M43.8397 56.0381H39.9766C42.1751 56.0381 43.9573 57.8203 43.9573 60.0188C43.9573 62.2174 42.1751 63.9996 39.9766 63.9996H43.8397C46.0383 63.9996 47.8205 62.2174 47.8205 60.0188C47.8206 57.8203 46.0383 56.0381 43.8397 56.0381Z" fill="#AE6C6C"/>
<path d="M32.5716 42.0723H30.6965C28.8109 42.0723 26.9446 40.7082 26.6362 38.848L25.8711 34.2337C25.4817 31.8852 27.2933 29.7486 29.6739 29.7486C34.2936 28.1163 38.0356 24.6301 40.0129 20.1855H7.72655C9.70372 24.6303 13.4459 28.1163 18.0656 29.7486C20.4462 29.7486 22.2578 31.8852 21.8684 34.2337L21.1033 38.848C20.7949 40.7082 19.186 42.0723 17.3005 42.0723H15.1679C10.2522 42.0723 6.2221 46.0275 6.19557 50.9431C6.19544 50.9759 6.19531 51.0086 6.19531 51.0413V56.0386H41.5443V51.0413C41.5443 51.0086 41.5442 50.9759 41.544 50.9431C41.5174 46.0275 37.4873 42.0723 32.5716 42.0723Z" fill="#FED402"/>
<path d="M41.8038 50.9431C41.7771 46.0275 37.7472 42.0723 32.8314 42.0723H30.6987C28.8131 42.0723 27.2043 40.7082 26.8959 38.848L26.1309 34.2337C25.7415 31.8852 27.553 29.7486 29.9337 29.7486C34.5534 28.1163 38.2954 24.6301 40.2727 20.1855H36.4095C34.4323 24.6303 30.6902 28.1163 26.0705 29.7486C23.6899 29.7486 21.8783 31.8852 22.2677 34.2337L23.0327 38.848C23.3412 40.7082 24.95 42.0723 26.8355 42.0723H28.9683C33.884 42.0723 37.9141 46.0275 37.9406 50.9431C37.9408 50.9759 37.9409 51.0086 37.9409 51.0413V56.0386H41.8041V51.0413C41.8041 51.0086 41.8039 50.9759 41.8038 50.9431Z" fill="#FAC600"/>
</svg>
