<svg width="22" height="20" viewBox="0 0 22 20" fill="none" xmlns="http://www.w3.org/2000/svg">
<path d="M6.025 16.85L3.4 16.3C3.18333 16.25 3.00833 16.1333 2.875 15.95C2.74167 15.75 2.69167 15.5417 2.725 15.325L2.975 12.625L1.2 10.6C1.03333 10.4333 0.95 10.2333 0.95 10C0.95 9.76667 1.03333 9.56667 1.2 9.4L2.975 7.375L2.725 4.675C2.69167 4.45833 2.74167 4.25833 2.875 4.075C3.00833 3.875 3.18333 3.75 3.4 3.7L6.025 3.15L7.4 0.824998C7.53333 0.624999 7.7 0.491665 7.9 0.424999C8.11667 0.358332 8.325 0.366665 8.525 0.449998L11 1.5L13.475 0.449998C13.675 0.366665 13.875 0.358332 14.075 0.424999C14.2917 0.491665 14.4667 0.624999 14.6 0.824998L15.975 3.15L18.6 3.7C18.8167 3.75 18.9917 3.875 19.125 4.075C19.2583 4.25833 19.3083 4.45833 19.275 4.675L19.025 7.375L20.8 9.4C20.9667 9.56667 21.05 9.76667 21.05 10C21.05 10.2333 20.9667 10.4333 20.8 10.6L19.025 12.625L19.275 15.325C19.3083 15.5417 19.2583 15.75 19.125 15.95C18.9917 16.1333 18.8167 16.25 18.6 16.3L15.975 16.85L14.6 19.175C14.4667 19.375 14.2917 19.5083 14.075 19.575C13.875 19.6417 13.675 19.6333 13.475 19.55L11 18.5L8.525 19.55C8.325 19.6333 8.11667 19.6417 7.9 19.575C7.7 19.5083 7.53333 19.375 7.4 19.175L6.025 16.85ZM9.325 12.575C9.49167 12.7417 9.7 12.825 9.95 12.825C10.2 12.825 10.4083 12.7417 10.575 12.575L14.725 8.425C14.875 8.275 14.95 8.1 14.95 7.9C14.95 7.68333 14.875 7.5 14.725 7.35C14.575 7.2 14.4 7.125 14.2 7.125C14 7.125 13.8167 7.2 13.65 7.35L9.95 11.075L8.325 9.45C8.175 9.31667 7.99167 9.25833 7.775 9.275C7.575 9.275 7.40833 9.34167 7.275 9.475C7.125 9.625 7.05 9.8 7.05 10C7.05 10.2 7.125 10.375 7.275 10.525L9.325 12.575ZM8.45 17.95L11 16.875L13.575 17.95L15 15.55L17.75 14.925L17.5 12.1L19.35 10L17.5 7.875L17.75 5.05L15 4.45L13.55 2.05L11 3.125L8.425 2.05L7 4.45L4.25 5.05L4.5 7.875L2.65 10L4.5 12.1L4.25 14.95L7 15.55L8.45 17.95Z" fill="white"/>
</svg>
