<svg width="26" height="20" viewBox="0 0 26 20" fill="none" xmlns="http://www.w3.org/2000/svg">
<path d="M5.73333 14.9H15.6V14.4333C15.6 13.2556 15 12.4889 13.8 12.1333C12.6 11.7556 11.5556 11.5667 10.6667 11.5667C9.75556 11.5667 8.7 11.7556 7.5 12.1333C6.32222 12.4889 5.73333 13.2556 5.73333 14.4333V14.9ZM10.6667 9.7C11.3111 9.7 11.8556 9.47778 12.3 9.03333C12.7667 8.56667 13 8.01111 13 7.36666C13 6.7 12.7667 6.14444 12.3 5.7C11.8556 5.25555 11.3111 5.03333 10.6667 5.03333C10 5.03333 9.44444 5.25555 9 5.7C8.55556 6.14444 8.33333 6.7 8.33333 7.36666C8.33333 8.01111 8.55556 8.56667 9 9.03333C9.44444 9.47778 10 9.7 10.6667 9.7ZM2.9 20C2.27778 20 1.74444 19.7889 1.3 19.3667C0.877778 18.9222 0.666667 18.3889 0.666667 17.7667V2.23333C0.666667 1.61111 0.877778 1.08889 1.3 0.666666C1.74444 0.222221 2.27778 -1.90735e-06 2.9 -1.90735e-06H18.4C19.0222 -1.90735e-06 19.5556 0.222221 20 0.666666C20.4444 1.08889 20.6667 1.61111 20.6667 2.23333V8.63333L24.3667 4.93333C24.5444 4.73333 24.7444 4.68889 24.9667 4.8C25.2111 4.88889 25.3333 5.06667 25.3333 5.33333V14.6667C25.3333 14.9333 25.2111 15.1222 24.9667 15.2333C24.7444 15.3222 24.5444 15.2667 24.3667 15.0667L20.6667 11.3667V17.7667C20.6667 18.3889 20.4444 18.9222 20 19.3667C19.5556 19.7889 19.0222 20 18.4 20H2.9ZM2.9 18.1667H18.4C18.5333 18.1667 18.6333 18.1333 18.7 18.0667C18.7667 17.9778 18.8 17.8778 18.8 17.7667V2.23333C18.8 2.12222 18.7667 2.03333 18.7 1.96667C18.6333 1.87778 18.5333 1.83333 18.4 1.83333H2.9C2.78889 1.83333 2.68889 1.87778 2.6 1.96667C2.53333 2.03333 2.5 2.12222 2.5 2.23333V17.7667C2.5 17.8778 2.53333 17.9778 2.6 18.0667C2.68889 18.1333 2.78889 18.1667 2.9 18.1667ZM2.5 18.1667C2.5 18.1667 2.5 18.1333 2.5 18.0667C2.5 17.9778 2.5 17.8778 2.5 17.7667V2.23333C2.5 2.12222 2.5 2.03333 2.5 1.96667C2.5 1.87778 2.5 1.83333 2.5 1.83333C2.5 1.83333 2.5 1.87778 2.5 1.96667C2.5 2.03333 2.5 2.12222 2.5 2.23333V17.7667C2.5 17.8778 2.5 17.9778 2.5 18.0667C2.5 18.1333 2.5 18.1667 2.5 18.1667Z" fill="#00897B"/>
</svg>
